<svg width="24" height="24" viewBox="0 0 24 24" fill="none" xmlns="http://www.w3.org/2000/svg">
<g id="Group">
<g id="Clip path group">
<mask id="mask0_127_1089" style="mask-type:luminance" maskUnits="userSpaceOnUse" x="0" y="0" width="24" height="24">
<g id="a">
<path id="Vector" d="M23.4999 23.5V0.500071H0.5V23.5H23.4999Z" fill="white" stroke="white"/>
</g>
</mask>
<g mask="url(#mask0_127_1089)">
<g id="Group_2">
<path id="Vector_2" d="M5.15624 14.1562L1.25625 7.75736C0.758906 7.01299 0.46875 6.11862 0.46875 5.15628C0.46875 2.56738 2.56734 0.46879 5.15624 0.46879C7.74513 0.46879 9.84372 2.56738 9.84372 5.15628C9.84372 6.11862 9.55357 7.01299 9.05622 7.75736L5.15624 14.1562Z" stroke="white" stroke-miterlimit="10" stroke-linecap="round" stroke-linejoin="round"/>
<path id="Vector_3" d="M7.03124 5.15626C7.03124 6.19172 6.19171 7.03125 5.15624 7.03125C4.12078 7.03125 3.28125 6.19172 3.28125 5.15626C3.28125 4.12079 4.12078 3.28126 5.15624 3.28126C6.19171 3.28126 7.03124 4.12079 7.03124 5.15626Z" stroke="white" stroke-miterlimit="10" stroke-linecap="round" stroke-linejoin="round"/>
<path id="Vector_4" d="M18.8437 21.6563C19.3617 21.6563 19.7812 22.0763 19.7812 22.5938C19.7812 23.1117 19.3617 23.5312 18.8437 23.5312C18.3258 23.5312 17.9062 23.1117 17.9062 22.5938C17.9062 22.0763 18.3258 21.6563 18.8437 21.6563ZM18.8437 21.6563L14.9437 15.5386C14.4464 14.7942 14.1562 13.8999 14.1562 12.9375C14.1562 10.3486 16.2548 8.25005 18.8437 8.25005C21.4326 8.25005 23.5312 10.3486 23.5312 12.9375C23.5312 13.8999 23.2411 14.7942 22.7437 15.5386L18.8437 21.6563Z" stroke="white" stroke-miterlimit="10" stroke-linecap="round" stroke-linejoin="round"/>
<path id="Vector_5" d="M20.7187 12.9375C20.7187 13.973 19.8792 14.8125 18.8437 14.8125C17.8083 14.8125 16.9688 13.973 16.9688 12.9375C16.9688 11.902 17.8083 11.0625 18.8437 11.0625C19.8792 11.0625 20.7187 11.902 20.7187 12.9375Z" stroke="white" stroke-miterlimit="10" stroke-linecap="round" stroke-linejoin="round"/>
<path id="Vector_6" d="M6.09374 15.0938C6.09374 15.6117 5.67421 16.0312 5.15625 16.0312C4.63828 16.0312 4.21875 15.6117 4.21875 15.0938C4.21875 14.5763 4.63828 14.1563 5.15625 14.1563C5.67421 14.1563 6.09374 14.5763 6.09374 15.0938Z" stroke="white" stroke-miterlimit="10" stroke-linecap="round" stroke-linejoin="round"/>
<path id="Vector_7" d="M11.2969 22.5625C11.2796 22.5625 11.2656 22.5765 11.2656 22.5938C11.2656 22.611 11.2796 22.625 11.2969 22.625C11.3141 22.625 11.3281 22.611 11.3281 22.5938C11.3281 22.5765 11.3141 22.5625 11.2969 22.5625Z" fill="white" stroke="white"/>
<path id="Vector_8" d="M6.09374 15.0938H10.125C11.1604 15.0938 12 15.9333 12 16.9688C12 18.0042 11.1604 18.8438 10.125 18.8438H4.49999C3.46453 18.8438 2.625 19.6833 2.625 20.7188C2.625 21.7542 3.46453 22.5938 4.49999 22.5938H9.18748" stroke="white" stroke-miterlimit="10" stroke-linecap="round" stroke-linejoin="round"/>
<path id="Vector_9" d="M13.4062 22.5938H17.9062" stroke="white" stroke-miterlimit="10" stroke-linecap="round" stroke-linejoin="round"/>
</g>
</g>
</g>
</g>
</svg>
