<svg width="40" height="40" viewBox="0 0 40 40" fill="none" xmlns="http://www.w3.org/2000/svg">
<g id="socials/atoms/icons/colored/rounded/telegram">
<path id="bg" d="M0 20C0 31.0457 8.95431 40 20 40C31.0457 40 40 31.0457 40 20C40 8.95431 31.0457 0 20 0C8.95431 0 0 8.95431 0 20Z" fill="#F49C89"/>
<path id="telegram" d="M10.1249 19.6354C15.4936 17.2963 19.0736 15.7543 20.8648 15.0092C25.9792 12.882 27.0419 12.5125 27.7346 12.5001C27.8869 12.4976 28.2276 12.5353 28.4482 12.7144C28.6345 12.8655 28.6858 13.0698 28.7103 13.2131C28.7348 13.3564 28.7654 13.6829 28.7411 13.9381C28.464 16.8501 27.2647 23.9169 26.6546 27.1784C26.3965 28.5585 25.8882 29.0212 25.3961 29.0665C24.3266 29.1649 23.5145 28.3597 22.4787 27.6807C20.8578 26.6182 19.9421 25.9568 18.3688 24.92C16.5505 23.7218 17.7292 23.0632 18.7654 21.987C19.0366 21.7053 23.7487 17.4193 23.8399 17.0305C23.8513 16.9819 23.8619 16.8006 23.7542 16.7049C23.6465 16.6092 23.4876 16.6419 23.3729 16.668C23.2104 16.7049 20.621 18.4163 15.6049 21.8024C14.8699 22.3071 14.2042 22.553 13.6077 22.5401C12.9501 22.5259 11.6853 22.1683 10.745 21.8626C9.59166 21.4877 8.67503 21.2895 8.75485 20.6528C8.79642 20.3212 9.2531 19.9821 10.1249 19.6354Z" fill="white"/>
</g>
</svg>
